<svg width="1000" height="140" viewBox="0 0 1000 140" fill="none" xmlns="http://www.w3.org/2000/svg">
<g clip-path="url(#clip0)">
<path d="M10 70C11.3333 4.13333 12.6667 4.13333 14 70C15.1417 116.933 16.475 116.933 18 70C19.3333 23.0667 20.6667 23.0667 22 70C23.4129 122.533 24.7462 122.533 26 70C27.3333 17.4667 28.6667 17.4667 30 70C31.3976 127.6 32.731 127.6 34 70C35.3333 12.4 36.6667 12.4 38 70C38.9969 98.5333 40.3302 98.5333 42 70C43.3333 41.4667 44.6667 41.4667 46 70C48.0935 131.067 49.4268 131.067 50 70C51.3333 8.93333 52.6667 8.93333 54 70C55.0888 108.667 56.4221 108.667 58 70C59.3333 31.3333 60.6667 31.3333 62 70C63.2 100.933 64.5333 100.933 66 70C67.3333 39.0667 68.6667 39.0667 70 70C72.1494 138.8 73.4828 138.8 74 70C75.3333 1.2 76.6667 1.2 78 70C78.9897 103.333 80.323 103.333 82 70C83.3333 36.6667 84.6667 36.6667 86 70C87.312 102.267 88.6453 102.267 90 70C91.3333 37.7333 92.6667 37.7333 94 70C95.3994 105.467 96.7328 105.467 98 70C99.3333 34.5333 100.667 34.5333 102 70C103.985 140.133 105.318 140.133 106 70C107.333 -0.133331 108.667 -0.133331 110 70C111.146 120.4 112.479 120.4 114 70C115.333 19.6 116.667 19.6 118 70C119.125 104.667 120.459 104.667 122 70C123.333 35.3333 124.667 35.3333 126 70C127.497 113.2 128.831 113.2 130 70C131.333 26.8 132.667 26.8 134 70C135.84 146 137.173 146 138 70C139.333 -6 140.667 -6 142 70C143.336 146.267 144.669 146.267 146 70C147.333 -6.26667 148.667 -6.26667 150 70C151.312 143.867 152.646 143.867 154 70C155.333 -3.86667 156.667 -3.86667 158 70C159.235 132.933 160.568 132.933 162 70C163.333 7.06667 164.667 7.06667 166 70C167.147 115.333 168.48 115.333 170 70C171.333 24.6667 172.667 24.6667 174 70C175.827 148.933 177.161 148.933 178 70C179.333 -8.93333 180.667 -8.93333 182 70C182.901 97.7333 184.234 97.7333 186 70C187.333 42.2667 188.667 42.2667 190 70C191.949 123.333 193.282 123.333 194 70C195.333 16.6667 196.667 16.6667 198 70C199.193 112.133 200.527 112.133 202 70C203.333 27.8667 204.667 27.8667 206 70C207.928 149.733 209.262 149.733 210 70C211.333 -9.73333 212.667 -9.73333 214 70C215.035 114 216.368 114 218 70C219.333 26 220.667 26 222 70C223.349 115.067 224.683 115.067 226 70C227.333 24.9333 228.667 24.9333 230 70C231.759 143.867 233.093 143.867 234 70C235.333 -3.86667 236.667 -3.86667 238 70C238.968 103.333 240.301 103.333 242 70C243.333 36.6667 244.667 36.6667 246 70C247.872 130.267 249.205 130.267 250 70C251.333 9.73333 252.667 9.73333 254 70C255.286 126 256.619 126 258 70C259.333 14 260.667 14 262 70C263.133 109.2 264.467 109.2 266 70C267.333 30.8 268.667 30.8 270 70C271.868 140.667 273.202 140.667 274 70C275.333 -0.666669 276.667 -0.666669 278 70C279.019 107.333 280.352 107.333 282 70C283.333 32.6667 284.667 32.6667 286 70C287.662 125.733 288.995 125.733 290 70C291.333 14.2667 292.667 14.2667 294 70C295.005 98.2667 296.338 98.2667 298 70C299.333 41.7333 300.667 41.7333 302 70C303.849 120.133 305.182 120.133 306 70C307.333 19.8667 308.667 19.8667 310 70C311.33 119.867 312.663 119.867 314 70C315.333 20.1333 316.667 20.1333 318 70C319.601 139.867 320.934 139.867 322 70C323.333 0.133331 324.667 0.133331 326 70C326.972 102 328.305 102 330 70C331.333 38 332.667 38 334 70C335.622 115.867 336.956 115.867 338 70C339.333 24.1333 340.667 24.1333 342 70C343.058 96.9333 344.391 96.9333 346 70C347.333 43.0667 348.667 43.0667 350 70C352.429 141.2 353.762 141.2 354 70C355.333 -1.2 356.667 -1.2 358 70C358.949 100.133 360.282 100.133 362 70C363.333 39.8667 364.667 39.8667 366 70C367.929 127.067 369.263 127.067 370 70C371.333 12.9333 372.667 12.9333 374 70C375.025 100.667 376.358 100.667 378 70C379.333 39.3333 380.667 39.3333 382 70C383.641 114.8 384.974 114.8 386 70C387.333 25.2 388.667 25.2 390 70C391.452 122.8 392.786 122.8 394 70C395.333 17.2 396.667 17.2 398 70C399.441 131.333 400.774 131.333 402 70C403.333 8.66667 404.667 8.66667 406 70C407.02 102.533 408.354 102.533 410 70C411.333 37.4667 412.667 37.4667 414 70C415.23 97.4667 416.563 97.4667 418 70C419.333 42.5333 420.667 42.5333 422 70C424.472 144.4 425.806 144.4 426 70C427.333 -4.4 428.667 -4.4 430 70C431.269 137.2 432.602 137.2 434 70C435.333 2.8 436.667 2.8 438 70C439.159 119.6 440.492 119.6 442 70C443.333 20.4 444.667 20.4 446 70C447.495 131.6 448.828 131.6 450 70C451.333 8.4 452.667 8.4 454 70C455.33 131.333 456.664 131.333 458 70C459.333 8.66667 460.667 8.66667 462 70C463.394 136.933 464.728 136.933 466 70C467.333 3.06667 468.667 3.06667 470 70C471.017 105.2 472.351 105.2 474 70C475.333 34.8 476.667 34.8 478 70C479.934 136.933 481.268 136.933 482 70C483.333 3.06667 484.667 3.06667 486 70C487.371 140.667 488.704 140.667 490 70C491.333 -0.666669 492.667 -0.666669 494 70C495.006 106 496.34 106 498 70C499.333 34 500.667 34 502 70C503.536 116.933 504.869 116.933 506 70C507.333 23.0667 508.667 23.0667 510 70C511.591 135.067 512.924 135.067 514 70C515.333 4.93333 516.667 4.93333 518 70C519.301 131.867 520.634 131.867 522 70C523.333 8.13333 524.667 8.13333 526 70C527.526 149.733 528.859 149.733 530 70C531.333 -9.73333 532.667 -9.73333 534 70C535.126 124.933 536.459 124.933 538 70C539.333 15.0667 540.667 15.0667 542 70C543.583 145.467 544.916 145.467 546 70C547.333 -5.46667 548.667 -5.46667 550 70C551.128 122.267 552.462 122.267 554 70C555.333 17.7333 556.667 17.7333 558 70C559.337 122.533 560.67 122.533 562 70C563.333 17.4667 564.667 17.4667 566 70C567.479 134 568.812 134 570 70C571.333 6 572.667 6 574 70C574.975 99.6 576.308 99.6 578 70C579.333 40.4 580.667 40.4 582 70C583.76 118.533 585.093 118.533 586 70C587.333 21.4667 588.667 21.4667 590 70C591.443 126.533 592.777 126.533 594 70C595.333 13.4667 596.667 13.4667 598 70C599.484 139.333 600.818 139.333 602 70C603.333 0.666669 604.667 0.666669 606 70C607.113 116.4 608.446 116.4 610 70C611.333 23.6 612.667 23.6 614 70C615.172 105.2 616.506 105.2 618 70C619.333 34.8 620.667 34.8 622 70C623.343 105.733 624.677 105.733 626 70C627.333 34.2667 628.667 34.2667 630 70C631.378 108.133 632.711 108.133 634 70C635.333 31.8667 636.667 31.8667 638 70C639.166 98.5333 640.499 98.5333 642 70C643.333 41.4667 644.667 41.4667 646 70C648 127.067 649.333 127.067 650 70C651.333 12.9333 652.667 12.9333 654 70C655.227 118 656.561 118 658 70C659.333 22 660.667 22 662 70C663.056 98 664.389 98 666 70C667.333 42 668.667 42 670 70C671.524 106 672.857 106 674 70C675.333 34 676.667 34 678 70C680.074 146 681.407 146 682 70C683.333 -6 684.667 -6 686 70C687.102 119.6 688.435 119.6 690 70C691.333 20.4 692.667 20.4 694 70C695.093 101.733 696.427 101.733 698 70C699.333 38.2667 700.667 38.2667 702 70C703.227 96.6667 704.56 96.6667 706 70C707.333 43.3333 708.667 43.3333 710 70C712.267 134 713.6 134 714 70C715.333 6 716.667 6 718 70C719.328 133.467 720.661 133.467 722 70C723.333 6.53333 724.667 6.53333 726 70C727.202 120.933 728.535 120.933 730 70C731.333 19.0667 732.667 19.0667 734 70C735.03 97.7333 736.363 97.7333 738 70C739.333 42.2667 740.667 42.2667 742 70C743.596 108.667 744.929 108.667 746 70C747.333 31.3333 748.667 31.3333 750 70C751.954 144.667 753.287 144.667 754 70C755.333 -4.66667 756.667 -4.66667 758 70C759.086 116.933 760.419 116.933 762 70C763.333 23.0667 764.667 23.0667 766 70C767.371 119.6 768.705 119.6 770 70C771.333 20.4 772.667 20.4 774 70C775.229 111.867 776.563 111.867 778 70C779.333 28.1333 780.667 28.1333 782 70C783.885 146.533 785.219 146.533 786 70C787.333 -6.53333 788.667 -6.53333 790 70C791.317 144.667 792.65 144.667 794 70C795.333 -4.66667 796.667 -4.66667 798 70C799.179 127.333 800.512 127.333 802 70C803.333 12.6667 804.667 12.6667 806 70C806.98 96.9333 808.313 96.9333 810 70C811.333 43.0667 812.667 43.0667 814 70C816.462 142.533 817.795 142.533 818 70C819.333 -2.53333 820.667 -2.53333 822 70C823.029 109.467 824.363 109.467 826 70C827.333 30.5333 828.667 30.5333 830 70C831.527 120.933 832.86 120.933 834 70C835.333 19.0667 836.667 19.0667 838 70C839.18 109.2 840.513 109.2 842 70C843.333 30.8 844.667 30.8 846 70C847.184 100.4 848.517 100.4 850 70C851.333 39.6 852.667 39.6 854 70C855.76 119.867 857.094 119.867 858 70C859.333 20.1333 860.667 20.1333 862 70C863.28 115.867 864.613 115.867 866 70C867.333 24.1333 868.667 24.1333 870 70C871.686 140.133 873.019 140.133 874 70C875.333 -0.133331 876.667 -0.133331 878 70C879.196 125.733 880.53 125.733 882 70C883.333 14.2667 884.667 14.2667 886 70C887.161 111.333 888.494 111.333 890 70C891.333 28.6667 892.667 28.6667 894 70C895.837 142.533 897.17 142.533 898 70C899.333 -2.53333 900.667 -2.53333 902 70C902.993 105.467 904.326 105.467 906 70C907.333 34.5333 908.667 34.5333 910 70C911.935 137.467 913.268 137.467 914 70C915.333 2.53333 916.667 2.53333 918 70C919.065 110.267 920.398 110.267 922 70C923.333 29.7333 924.667 29.7333 926 70C927.541 122.8 928.874 122.8 930 70C931.333 17.2 932.667 17.2 934 70C935.515 137.2 936.848 137.2 938 70C939.333 2.8 940.667 2.8 942 70C943.029 106.533 944.362 106.533 946 70C947.333 33.4667 948.667 33.4667 950 70C951.664 124.667 952.998 124.667 954 70C955.333 15.3333 956.667 15.3333 958 70C959.268 119.333 960.602 119.333 962 70C963.333 20.6667 964.667 20.6667 966 70C967.247 112.933 968.58 112.933 970 70C971.333 27.0667 972.667 27.0667 974 70C975.462 121.2 976.795 121.2 978 70C979.333 18.8 980.667 18.8 982 70C983.198 110.8 984.531 110.8 986 70C987.333 29.2 988.667 29.2 990 70C991.377 113.467 992.71 113.467 994 70C995.333 26.5333 996.667 26.5333 998 70C999.751 140.667 1001.08 140.667 1002 70C1003.33 -0.666669 1004.67 -0.666669 1006 70C1007.2 126.533 1008.53 126.533 1010 70C1011.33 13.4667 1012.67 13.4667 1014 70C1015.59 148.133 1016.92 148.133 1018 70C1019.33 -8.13333 1020.67 -8.13333 1022 70C1023.24 137.733 1024.58 137.733 1026 70C1027.33 2.26667 1028.67 2.26667 1030 70C1031.38 142.8 1032.72 142.8 1034 70C1035.33 -2.8 1036.67 -2.8 1038 70C1039.18 126.267 1040.52 126.267 1042 70C1043.33 13.7333 1044.67 13.7333 1046 70C1047.44 135.333 1048.77 135.333 1050 70C1051.33 4.66667 1052.67 4.66667 1054 70C1055.22 124.667 1056.56 124.667 1058 70C1059.33 15.3333 1060.67 15.3333 1062 70C1063.05 101.467 1064.38 101.467 1066 70C1067.33 38.5333 1068.67 38.5333 1070 70C1072.15 140.133 1073.49 140.133 1074 70C1075.33 -0.133331 1076.67 -0.133331 1078 70C1078.98 103.067 1080.31 103.067 1082 70C1083.33 36.9333 1084.67 36.9333 1086 70C1087.99 135.6 1089.32 135.6 1090 70C1091.33 4.4 1092.67 4.4 1094 70C1095.28 130.8 1096.62 130.8 1098 70C1099.33 9.2 1100.67 9.2 1102 70C1103.15 114.533 1104.49 114.533 1106 70C1107.33 25.4667 1108.67 25.4667 1110 70C1111.33 114.533 1112.67 114.533 1114 70C1115.33 25.4667 1116.67 25.4667 1118 70C1119.27 110 1120.6 110 1122 70C1123.33 30 1124.67 30 1126 70C1127.82 139.067 1129.15 139.067 1130 70C1131.33 0.933331 1132.67 0.933331 1134 70C1135.2 125.2 1136.53 125.2 1138 70C1139.33 14.8 1140.67 14.8 1142 70C1143.12 107.6 1144.45 107.6 1146 70C1147.33 32.4 1148.67 32.4 1150 70C1151.74 130.8 1153.08 130.8 1154 70C1155.33 9.2 1156.67 9.2 1158 70C1159.38 135.333 1160.72 135.333 1162 70C1163.33 4.66667 1164.67 4.66667 1166 70C1167.3 131.6 1168.63 131.6 1170 70C1171.33 8.4 1172.67 8.4 1174 70C1175.39 136.667 1176.72 136.667 1178 70C1179.33 3.33333 1180.67 3.33333 1182 70C1183.38 141.2 1184.71 141.2 1186 70C1187.33 -1.2 1188.67 -1.2 1190 70C1190.92 96.6667 1192.25 96.6667 1194 70C1195.33 43.3333 1196.67 43.3333 1198 70C1200.17 130.267 1201.51 130.267 1202 70C1203.33 9.73333 1204.67 9.73333 1206 70C1207.16 114.267 1208.49 114.267 1210 70C1211.33 25.7333 1212.67 25.7333 1214 70C1215.6 132.133 1216.94 132.133 1218 70C1219.33 7.86667 1220.67 7.86667 1222 70C1223.39 137.467 1224.72 137.467 1226 70C1227.33 2.53333 1228.67 2.53333 1230 70C1231.32 135.867 1232.65 135.867 1234 70C1235.33 4.13333 1236.67 4.13333 1238 70C1239.03 106 1240.36 106 1242 70C1243.33 34 1244.67 34 1246 70C1247.54 117.2 1248.87 117.2 1250 70C1251.33 22.8 1252.67 22.8 1254 70C1255.48 127.867 1256.82 127.867 1258 70C1259.33 12.1333 1260.67 12.1333 1262 70C1263.39 132.667 1264.72 132.667 1266 70C1267.33 7.33333 1268.67 7.33333 1270 70C1270.96 97.2 1272.29 97.2 1274 70C1275.33 42.8 1276.67 42.8 1278 70C1279.69 111.867 1281.03 111.867 1282 70C1283.33 28.1333 1284.67 28.1333 1286 70C1287.9 147.6 1289.24 147.6 1290 70C1291.33 -7.6 1292.67 -7.6 1294 70C1295.23 136.133 1296.57 136.133 1298 70C1299.33 3.86667 1300.67 3.86667 1302 70C1303.08 110.8 1304.41 110.8 1306 70C1307.33 29.2 1308.67 29.2 1310 70C1311.68 132.133 1313.02 132.133 1314 70C1315.33 7.86667 1316.67 7.86667 1318 70C1319.04 104.4 1320.37 104.4 1322 70C1323.33 35.6 1324.67 35.6 1326 70C1327.57 116.4 1328.9 116.4 1330 70C1331.33 23.6 1332.67 23.6 1334 70C1335.43 122.8 1336.76 122.8 1338 70C1339.33 17.2 1340.67 17.2 1342 70C1343.28 118.533 1344.61 118.533 1346 70C1347.33 21.4667 1348.67 21.4667 1350 70C1351.51 131.067 1352.84 131.067 1354 70C1355.33 8.93333 1356.67 8.93333 1358 70C1359.29 127.067 1360.62 127.067 1362 70C1363.33 12.9333 1364.67 12.9333 1366 70C1367.1 107.333 1368.44 107.333 1370 70C1371.33 32.6667 1372.67 32.6667 1374 70C1375.3 105.2 1376.63 105.2 1378 70C1379.33 34.8 1380.67 34.8 1382 70C1383.55 116.4 1384.88 116.4 1386 70C1387.33 23.6 1388.67 23.6 1390 70C1391.05 96.9333 1392.39 96.9333 1394 70C1395.33 43.0667 1396.67 43.0667 1398 70C1399.52 104.667 1400.86 104.667 1402 70C1403.33 35.3333 1404.67 35.3333 1406 70C1407.81 129.467 1409.14 129.467 1410 70C1411.33 10.5333 1412.67 10.5333 1414 70C1415.14 112.667 1416.48 112.667 1418 70C1419.33 27.3333 1420.67 27.3333 1422 70C1423.22 105.467 1424.55 105.467 1426 70C1427.33 34.5333 1428.67 34.5333 1430 70C1431.99 140.4 1433.32 140.4 1434 70C1435.33 -0.4 1436.67 -0.4 1438 70C1438.99 104.667 1440.33 104.667 1442 70C1443.33 35.3333 1444.67 35.3333 1446 70C1448.15 147.333 1449.49 147.333 1450 70C1451.33 -7.33333 1452.67 -7.33333 1454 70C1455.01 109.467 1456.34 109.467 1458 70C1459.33 30.5333 1460.67 30.5333 1462 70C1463.74 133.467 1465.07 133.467 1466 70C1467.33 6.53333 1468.67 6.53333 1470 70C1471.31 131.067 1472.64 131.067 1474 70C1475.33 8.93333 1476.67 8.93333 1478 70C1478.97 97.7333 1480.3 97.7333 1482 70C1483.33 42.2667 1484.67 42.2667 1486 70C1487.63 110 1488.96 110 1490 70C1491.33 30 1492.67 30 1494 70C1495.97 148.133 1497.3 148.133 1498 70C1499.33 -8.13333 1500.67 -8.13333 1502 70C1503.12 122.8 1504.45 122.8 1506 70C1507.33 17.2 1508.67 17.2 1510 70C1511.06 101.2 1512.39 101.2 1514 70C1515.33 38.8 1516.67 38.8 1518 70C1519.53 110.267 1520.86 110.267 1522 70C1523.33 29.7333 1524.67 29.7333 1526 70C1527.65 129.2 1528.98 129.2 1530 70C1531.33 10.8 1532.67 10.8 1534 70C1535.55 148.133 1536.88 148.133 1538 70C1539.33 -8.13333 1540.67 -8.13333 1542 70C1543.32 146.267 1544.65 146.267 1546 70C1547.33 -6.26667 1548.67 -6.26667 1550 70C1551.35 148.667 1552.69 148.667 1554 70C1555.33 -8.66667 1556.67 -8.66667 1558 70C1559.08 119.333 1560.42 119.333 1562 70C1563.33 20.6667 1564.67 20.6667 1566 70C1567.4 124.133 1568.73 124.133 1570 70C1571.33 15.8667 1572.67 15.8667 1574 70C1575.61 146.267 1576.94 146.267 1578 70C1579.33 -6.26667 1580.67 -6.26667 1582 70C1583.08 117.467 1584.41 117.467 1586 70C1587.33 22.5333 1588.67 22.5333 1590 70C1591.5 129.2 1592.83 129.2 1594 70C1595.33 10.8 1596.67 10.8 1598 70C1599.48 142 1600.81 142 1602 70C1603.33 -2 1604.67 -2 1606 70C1607.05 111.333 1608.38 111.333 1610 70C1611.33 28.6667 1612.67 28.6667 1614 70C1615.84 142.8 1617.17 142.8 1618 70C1619.33 -2.8 1620.67 -2.8 1622 70C1622.96 102.267 1624.3 102.267 1626 70C1627.33 37.7333 1628.67 37.7333 1630 70C1632.03 135.867 1633.36 135.867 1634 70C1635.33 4.13333 1636.67 4.13333 1638 70C1639.48 150 1640.81 150 1642 70C1643.33 -10 1644.67 -10 1646 70C1647.09 120.933 1648.42 120.933 1650 70C1651.33 19.0667 1652.67 19.0667 1654 70C1655.64 144.133 1656.97 144.133 1658 70C1659.33 -4.13333 1660.67 -4.13333 1662 70C1663.31 141.733 1664.65 141.733 1666 70C1667.33 -1.73333 1668.67 -1.73333 1670 70C1671.25 133.2 1672.59 133.2 1674 70C1675.33 6.8 1676.67 6.8 1678 70C1679.06 107.333 1680.39 107.333 1682 70C1683.33 32.6667 1684.67 32.6667 1686 70C1687.62 123.6 1688.96 123.6 1690 70C1691.33 16.4 1692.67 16.4 1694 70C1695.5 136.933 1696.83 136.933 1698 70C1699.33 3.06667 1700.67 3.06667 1702 70C1703.46 149.733 1704.79 149.733 1706 70C1707.33 -9.73333 1708.67 -9.73333 1710 70C1711.28 143.067 1712.61 143.067 1714 70C1715.33 -3.06667 1716.67 -3.06667 1718 70C1718.98 104.667 1720.32 104.667 1722 70C1723.33 35.3333 1724.67 35.3333 1726 70C1727.54 115.333 1728.87 115.333 1730 70C1731.33 24.6667 1732.67 24.6667 1734 70C1735.47 124.667 1736.8 124.667 1738 70C1739.33 15.3333 1740.67 15.3333 1742 70C1743.28 120.667 1744.62 120.667 1746 70C1747.33 19.3333 1748.67 19.3333 1750 70C1751.33 120.4 1752.66 120.4 1754 70C1755.33 19.6 1756.67 19.6 1758 70C1759.55 136.933 1760.89 136.933 1762 70C1763.33 3.06667 1764.67 3.06667 1766 70C1767.4 143.867 1768.74 143.867 1770 70C1771.33 -3.86667 1772.67 -3.86667 1774 70C1775.16 125.2 1776.5 125.2 1778 70C1779.33 14.8 1780.67 14.8 1782 70C1783.54 142 1784.87 142 1786 70C1787.33 -2 1788.67 -2 1790 70C1791.16 123.067 1792.49 123.067 1794 70C1795.33 16.9333 1796.67 16.9333 1798 70C1799.37 126 1800.7 126 1802 70C1803.33 14 1804.67 14 1806 70C1807.25 118.8 1808.58 118.8 1810 70C1811.33 21.2 1812.67 21.2 1814 70C1815.62 139.6 1816.95 139.6 1818 70C1819.33 0.4 1820.67 0.4 1822 70C1823.06 111.333 1824.4 111.333 1826 70C1827.33 28.6667 1828.67 28.6667 1830 70C1831.42 116.667 1832.75 116.667 1834 70C1835.33 23.3333 1836.67 23.3333 1838 70C1839.71 143.067 1841.04 143.067 1842 70C1843.33 -3.06667 1844.67 -3.06667 1846 70C1847.26 134.8 1848.59 134.8 1850 70C1851.33 5.2 1852.67 5.2 1854 70C1855.06 108.667 1856.4 108.667 1858 70C1859.33 31.3333 1860.67 31.3333 1862 70C1863.41 112.933 1864.74 112.933 1866 70C1867.33 27.0667 1868.67 27.0667 1870 70C1871.71 137.467 1873.05 137.467 1874 70C1875.33 2.53333 1876.67 2.53333 1878 70C1878.99 102.533 1880.32 102.533 1882 70C1883.33 37.4667 1884.67 37.4667 1886 70C1888.05 137.733 1889.39 137.733 1890 70C1891.33 2.26667 1892.67 2.26667 1894 70C1895.41 145.467 1896.74 145.467 1898 70C1899.33 -5.46667 1900.67 -5.46667 1902 70C1903.15 124.667 1904.48 124.667 1906 70C1907.33 15.3333 1908.67 15.3333 1910 70C1911.11 106.267 1912.44 106.267 1914 70C1915.33 33.7333 1916.67 33.7333 1918 70C1919.78 130.533 1921.11 130.533 1922 70C1923.33 9.46667 1924.67 9.46667 1926 70C1927.33 130 1928.66 130 1930 70C1931.33 10 1932.67 10 1934 70C1935.16 114.533 1936.49 114.533 1938 70C1939.33 25.4667 1940.67 25.4667 1942 70C1943.84 148.133 1945.17 148.133 1946 70C1947.33 -8.13333 1948.67 -8.13333 1950 70C1951.22 134.533 1952.55 134.533 1954 70C1955.33 5.46667 1956.67 5.46667 1958 70C1958.97 99.3333 1960.3 99.3333 1962 70C1963.33 40.6667 1964.67 40.6667 1966 70C1967.53 107.867 1968.86 107.867 1970 70C1971.33 32.1333 1972.67 32.1333 1974 70C1975.4 111.6 1976.73 111.6 1978 70C1979.33 28.4 1980.67 28.4 1982 70C1983.39 115.067 1984.72 115.067 1986 70C1987.33 24.9333 1988.67 24.9333 1990 70C1991.33 114.533 1992.66 114.533 1994 70C1995.33 25.4667 1996.67 25.4667 1998 70C1999.53 127.867 2000.87 127.867 2002 70C2003.33 12.1333 2004.67 12.1333 2006 70C2007.54 145.733 2008.87 145.733 2010 70" stroke="#504C49" stroke-width="2"/>
</g>
<defs>
<clipPath id="clip0">
<rect width="1000" height="140" fill="white"/>
</clipPath>
</defs>
</svg>
